<svg width="57" height="57" viewBox="0 0 57 57" fill="none" xmlns="http://www.w3.org/2000/svg">
<path d="M28.5 57C44.2142 57 57 44.2142 57 28.5C57 12.7858 44.2142 0 28.5 0C12.7858 0 0 12.7858 0 28.5C0 44.2142 12.7858 57 28.5 57ZM28.5 1.78125C43.2327 1.78125 55.2188 13.7673 55.2188 28.5C55.2188 43.2327 43.2327 55.2188 28.5 55.2188C13.7673 55.2188 1.78125 43.2327 1.78125 28.5C1.78125 13.7673 13.7673 1.78125 28.5 1.78125Z" fill="#9C2E29"/>
<path d="M35.7337 38.7741C35.8161 38.8575 35.9144 38.9237 36.0226 38.9689C36.1308 39.014 36.2469 39.0373 36.3642 39.0373C36.4815 39.0373 36.5976 39.014 36.7059 38.9689C36.8141 38.9237 36.9123 38.8575 36.9948 38.7741C37.1617 38.6071 37.2555 38.3806 37.2555 38.1445C37.2555 37.9083 37.1617 37.6818 36.9948 37.5148L28.5 29.0218V16.5994C28.5 16.3632 28.4062 16.1366 28.2391 15.9696C28.0721 15.8026 27.8456 15.7087 27.6094 15.7087C27.3732 15.7087 27.1466 15.8026 26.9796 15.9696C26.8126 16.1366 26.7188 16.3632 26.7188 16.5994V29.3905C26.7188 29.6274 26.8132 29.8536 26.9788 30.0211L35.7337 38.7741Z" fill="#9C2E29"/>
<path d="M7.125 30.2812C8.10876 30.2812 8.90625 29.4838 8.90625 28.5C8.90625 27.5162 8.10876 26.7188 7.125 26.7188C6.14124 26.7188 5.34375 27.5162 5.34375 28.5C5.34375 29.4838 6.14124 30.2812 7.125 30.2812Z" fill="#9C2E29"/>
<path d="M49.875 30.2812C50.8588 30.2812 51.6562 29.4838 51.6562 28.5C51.6562 27.5162 50.8588 26.7188 49.875 26.7188C48.8912 26.7188 48.0938 27.5162 48.0938 28.5C48.0938 29.4838 48.8912 30.2812 49.875 30.2812Z" fill="#9C2E29"/>
<path d="M28.5 8.90625C29.4838 8.90625 30.2812 8.10876 30.2812 7.125C30.2812 6.14124 29.4838 5.34375 28.5 5.34375C27.5162 5.34375 26.7188 6.14124 26.7188 7.125C26.7188 8.10876 27.5162 8.90625 28.5 8.90625Z" fill="#9C2E29"/>
<path d="M28.5 51.6562C29.4838 51.6562 30.2812 50.8588 30.2812 49.875C30.2812 48.8912 29.4838 48.0938 28.5 48.0938C27.5162 48.0938 26.7188 48.8912 26.7188 49.875C26.7188 50.8588 27.5162 51.6562 28.5 51.6562Z" fill="#9C2E29"/>
<path d="M14.25 16.0312C15.2338 16.0312 16.0312 15.2338 16.0312 14.25C16.0312 13.2662 15.2338 12.4688 14.25 12.4688C13.2662 12.4688 12.4688 13.2662 12.4688 14.25C12.4688 15.2338 13.2662 16.0312 14.25 16.0312Z" fill="#9C2E29"/>
<path d="M42.75 44.5312C43.7338 44.5312 44.5312 43.7338 44.5312 42.75C44.5312 41.7662 43.7338 40.9688 42.75 40.9688C41.7662 40.9688 40.9688 41.7662 40.9688 42.75C40.9688 43.7338 41.7662 44.5312 42.75 44.5312Z" fill="#9C2E29"/>
<path d="M44.5312 16.0312C45.515 16.0312 46.3125 15.2338 46.3125 14.25C46.3125 13.2662 45.515 12.4688 44.5312 12.4688C43.5475 12.4688 42.75 13.2662 42.75 14.25C42.75 15.2338 43.5475 16.0312 44.5312 16.0312Z" fill="#9C2E29"/>
<path d="M14.25 44.5312C15.2338 44.5312 16.0312 43.7338 16.0312 42.75C16.0312 41.7662 15.2338 40.9688 14.25 40.9688C13.2662 40.9688 12.4688 41.7662 12.4688 42.75C12.4688 43.7338 13.2662 44.5312 14.25 44.5312Z" fill="#9C2E29"/>
</svg>
