<svg width="44" height="49" viewBox="0 0 44 49" fill="none" xmlns="http://www.w3.org/2000/svg">
<path d="M39.111 5.35763H29.0093C28.5145 3.94494 27.5929 2.72094 26.372 1.85495C25.151 0.98897 23.6912 0.523804 22.1943 0.523804C20.6975 0.523804 19.2376 0.98897 18.0167 1.85495C16.7958 2.72094 15.8742 3.94494 15.3793 5.35763H5.27767C3.99697 5.36145 2.76981 5.8719 1.86421 6.7775C0.958614 7.6831 0.448161 8.91026 0.444336 10.191V44.0243C0.448161 45.305 0.958614 46.5322 1.86421 47.4377C2.76981 48.3433 3.99697 48.8538 5.27767 48.8576H39.111C40.3917 48.8538 41.6189 48.3433 42.5245 47.4377C43.4301 46.5322 43.9405 45.305 43.9443 44.0243V10.191C43.9405 8.91026 43.4301 7.6831 42.5245 6.7775C41.6189 5.8719 40.3917 5.36145 39.111 5.35763ZM22.1943 5.35763C22.6723 5.35763 23.1395 5.49936 23.537 5.76491C23.9344 6.03045 24.2441 6.40789 24.427 6.84947C24.61 7.29106 24.6578 7.77697 24.5646 8.24576C24.4713 8.71455 24.2412 9.14516 23.9032 9.48313C23.5652 9.82111 23.1346 10.0513 22.6658 10.1445C22.197 10.2378 21.7111 10.1899 21.2695 10.007C20.8279 9.82409 20.4505 9.51434 20.185 9.11692C19.9194 8.7195 19.7777 8.25226 19.7777 7.77429C19.7796 7.13394 20.0348 6.52036 20.4876 6.06756C20.9404 5.61476 21.554 5.35954 22.1943 5.35763ZM17.361 17.441L24.1035 24.1931L30.1935 18.1031L27.0277 15.0243H36.6943V24.691L33.6107 21.5227L24.1083 31.0323L17.361 24.2801L11.1115 30.5248L7.69434 27.1076L17.361 17.441ZM39.111 41.6076H5.27767V36.7743H39.111V41.6076Z" fill="#9C2E29"/>
</svg>
