<svg width="56" height="46" viewBox="0 0 56 46" fill="none" xmlns="http://www.w3.org/2000/svg">
<path d="M20.5 30.5C13.825 30.5 0.5 33.85 0.5 40.5V45.5H40.5V40.5C40.5 33.85 27.175 30.5 20.5 30.5ZM5.5 40.5C6.05 38.7 13.775 35.5 20.5 35.5C27.25 35.5 35 38.725 35.5 40.5H5.5ZM9.85 15.5H10.5C10.5 21.025 14.975 25.5 20.5 25.5C26.025 25.5 30.5 21.025 30.5 15.5H31.15C31.825 15.5 32.375 14.95 32.375 14.275V14.225C32.375 13.9001 32.2459 13.5885 32.0162 13.3588C31.7865 13.1291 31.4749 13 31.15 13H30.5C30.5 9.3 28.475 6.125 25.5 4.375V6.75C25.5 7.45 24.95 8 24.25 8C23.55 8 23 7.45 23 6.75V3.35C22.2 3.15 21.375 3 20.5 3C19.625 3 18.8 3.15 18 3.35V6.75C18 7.45 17.45 8 16.75 8C16.05 8 15.5 7.45 15.5 6.75V4.375C12.525 6.125 10.5 9.3 10.5 13H9.85C9.68913 13 9.52984 13.0317 9.38121 13.0932C9.23259 13.1548 9.09755 13.245 8.98379 13.3588C8.87004 13.4725 8.77981 13.6076 8.71825 13.7562C8.65669 13.9048 8.625 14.0641 8.625 14.225V14.3C8.625 14.95 9.175 15.5 9.85 15.5ZM25.5 15.5C25.5 18.25 23.25 20.5 20.5 20.5C17.75 20.5 15.5 18.25 15.5 15.5H25.5ZM52.95 8.575L55.275 6.5L53.4 3.25L50.425 4.225C50.075 3.95 49.675 3.725 49.25 3.55L48.625 0.5H44.875L44.25 3.55C43.825 3.725 43.425 3.95 43.05 4.225L40.1 3.25L38.225 6.5L40.55 8.575C40.5 9 40.5 9.45 40.55 9.875L38.225 12L40.1 15.25L43.1 14.3C43.425 14.55 43.8 14.75 44.175 14.925L44.875 18H48.625L49.3 14.95C49.7 14.775 50.05 14.575 50.4 14.325L53.375 15.275L55.25 12.025L52.925 9.9C53 9.425 52.975 9 52.95 8.575ZM46.75 12.375C45.9212 12.375 45.1263 12.0458 44.5403 11.4597C43.9542 10.8737 43.625 10.0788 43.625 9.25C43.625 8.4212 43.9542 7.62634 44.5403 7.04029C45.1263 6.45424 45.9212 6.125 46.75 6.125C47.5788 6.125 48.3737 6.45424 48.9597 7.04029C49.5458 7.62634 49.875 8.4212 49.875 9.25C49.875 10.0788 49.5458 10.8737 48.9597 11.4597C48.3737 12.0458 47.5788 12.375 46.75 12.375ZM46.5 19.975L44.375 20.675C44.125 20.475 43.85 20.325 43.55 20.2L43.1 18H40.425L39.975 20.175C39.675 20.3 39.375 20.475 39.125 20.65L37.025 19.95L35.675 22.275L37.325 23.75C37.3 24.075 37.3 24.375 37.325 24.675L35.675 26.2L37.025 28.525L39.175 27.85C39.425 28.025 39.675 28.175 39.95 28.3L40.4 30.5H43.075L43.55 28.325C43.825 28.2 44.1 28.05 44.35 27.875L46.475 28.55L47.825 26.225L46.175 24.7C46.2 24.375 46.2 24.075 46.175 23.775L47.825 22.3L46.5 19.975ZM41.75 26.475C40.525 26.475 39.525 25.475 39.525 24.25C39.525 23.025 40.525 22.025 41.75 22.025C42.975 22.025 43.975 23.025 43.975 24.25C43.975 25.475 42.975 26.475 41.75 26.475Z" fill="#9C2E29"/>
</svg>
