<svg width="47" height="49" viewBox="0 0 47 49" fill="none" xmlns="http://www.w3.org/2000/svg">
<path fill-rule="evenodd" clip-rule="evenodd" d="M29.9622 25.4032C29.5886 24.347 28.8969 23.4326 27.9821 22.7858C27.0673 22.139 25.9746 21.7917 24.8542 21.7917V20.4375H22.1459V21.7917C20.7093 21.7917 19.3316 22.3624 18.3158 23.3782C17.2999 24.394 16.7292 25.7717 16.7292 27.2083C16.7292 28.6449 17.2999 30.0227 18.3158 31.0385C19.3316 32.0543 20.7093 32.625 22.1459 32.625V38.0417C20.9678 38.0417 19.9644 37.2901 19.5906 36.2366C19.5352 36.0642 19.4457 35.9047 19.3275 35.7675C19.2094 35.6303 19.0649 35.5182 18.9026 35.4379C18.7404 35.3575 18.5637 35.3105 18.3829 35.2996C18.2022 35.2887 18.0211 35.3141 17.8504 35.3745C17.6797 35.4348 17.5228 35.5287 17.389 35.6507C17.2552 35.7727 17.1473 35.9204 17.0715 36.0848C16.9958 36.2493 16.9538 36.4273 16.948 36.6082C16.9423 36.7892 16.9729 36.9695 17.038 37.1384C17.4115 38.1947 18.1033 39.1091 19.0181 39.7559C19.9328 40.4027 21.0256 40.75 22.1459 40.75V42.1042H24.8542V40.75C26.2908 40.75 27.6686 40.1793 28.6844 39.1635C29.7002 38.1477 30.2709 36.7699 30.2709 35.3333C30.2709 33.8967 29.7002 32.519 28.6844 31.5032C27.6686 30.4874 26.2908 29.9167 24.8542 29.9167V24.5C25.4144 24.4999 25.9607 24.6734 26.4181 24.9967C26.8755 25.3199 27.2214 25.7771 27.4082 26.3051C27.5278 26.6438 27.777 26.9211 28.1011 27.076C28.2615 27.1527 28.4355 27.197 28.6131 27.2065C28.7907 27.216 28.9684 27.1904 29.1361 27.1311C29.3038 27.0719 29.4582 26.9803 29.5905 26.8614C29.7227 26.7425 29.8303 26.5987 29.907 26.4383C29.9837 26.2778 30.0281 26.1038 30.0375 25.9262C30.047 25.7486 30.0214 25.5709 29.9622 25.4032ZM22.1459 24.5C21.4276 24.5 20.7387 24.7853 20.2308 25.2933C19.7229 25.8012 19.4376 26.49 19.4376 27.2083C19.4376 27.9266 19.7229 28.6155 20.2308 29.1234C20.7387 29.6313 21.4276 29.9167 22.1459 29.9167V24.5ZM24.8542 38.0417C25.5725 38.0417 26.2614 37.7563 26.7693 37.2484C27.2772 36.7405 27.5626 36.0516 27.5626 35.3333C27.5626 34.615 27.2772 33.9262 26.7693 33.4183C26.2614 32.9103 25.5725 32.625 24.8542 32.625V38.0417Z" fill="#9C2E29"/>
<path fill-rule="evenodd" clip-rule="evenodd" d="M8.81141 3.67427C12.1345 2.04792 17.5864 0.125 23.5529 0.125C29.3947 0.125 34.7031 1.96802 38.0086 3.57271L38.1955 3.66344C39.1921 4.15635 39.9965 4.62219 40.5626 5L35.5603 12.3125C47.0923 24.1019 56.0001 48.8709 23.5529 48.8709C-8.89432 48.8709 -0.226299 24.5515 11.406 12.3125L6.4362 5C6.81943 4.74948 7.30558 4.45833 7.88516 4.14958C8.17224 3.99521 8.48099 3.83677 8.81141 3.67562V3.67427ZM32.3455 12.215L36.3497 6.36094C32.6258 6.62906 28.195 7.50385 23.9293 8.73885C20.8825 9.61906 17.497 9.485 14.3621 8.90677C13.5722 8.76031 12.7876 8.58597 12.01 8.38406L14.6099 12.2123C20.1823 14.1961 26.7717 14.1961 32.3455 12.215ZM13.0459 14.5198C19.5662 17.0385 27.4028 17.0385 33.9231 14.5171C36.6448 17.3861 38.9215 20.6466 40.6777 24.1899C42.5085 27.9247 43.5052 31.6581 43.3427 34.8756C43.1856 37.9807 41.9641 40.6335 39.1745 42.6052C36.2671 44.6595 31.3772 46.1626 23.5515 46.1626C15.7177 46.1626 10.8047 44.6852 7.87026 42.654C5.06037 40.7067 3.82672 38.0904 3.65203 35.0273C3.46922 31.845 4.44422 28.1305 6.26828 24.37C8.00839 20.7842 10.4364 17.3324 13.0459 14.5198ZM11.4886 5.42792C12.5719 5.75021 13.704 6.03052 14.8523 6.24312C17.7638 6.77937 20.6834 6.85792 23.1751 6.13615C26.0787 5.29026 29.0319 4.62499 32.0178 4.14417C29.5261 3.39396 26.6119 2.83333 23.5515 2.83333C18.8864 2.83333 14.5355 4.13469 11.4886 5.42792Z" fill="#9C2E29"/>
</svg>
