<svg width="69" height="65" viewBox="0 0 69 65" fill="none" xmlns="http://www.w3.org/2000/svg">
<path d="M34.3084 31.2361C39.4834 31.2361 43.5084 27.2639 43.5084 22.3889C43.5084 17.5139 39.2917 13.7222 34.1167 13.7222C28.9417 13.7222 24.9167 17.6945 24.9167 22.3889C24.9167 27.2639 29.1334 31.2361 34.3084 31.2361ZM34.1167 17.3333C34.3084 17.3333 34.3084 17.3333 34.1167 17.3333C37.1834 17.3333 39.6751 19.6806 39.6751 22.5695C39.6751 25.4583 37.1834 27.625 34.1167 27.625C31.0501 27.625 28.7501 25.2778 28.7501 22.5695C28.7501 19.6806 31.2417 17.3333 34.1167 17.3333Z" fill="#9C2E29"/>
<path d="M62.675 30.1528C59.0333 27.0833 54.2417 25.4583 49.2583 25.6389H47.725C47.3417 27.0833 46.7667 28.3472 46 29.4306C47.15 29.25 48.1083 29.25 49.2583 29.25C52.9 29.0694 56.5417 30.1528 59.4167 32.1389V45.1389H63.25V30.6944L62.675 30.1528Z" fill="#9C2E29"/>
<path d="M44.8501 14.0834C45.8084 11.9167 48.4917 10.8334 50.9834 11.7361C53.2834 12.6389 54.4334 15.1667 53.4751 17.5139C52.7084 19.1389 50.9834 20.2222 49.2584 20.2222C48.8751 20.2222 48.3001 20.2223 47.9167 20.0417C48.1084 20.9445 48.1084 21.8472 48.1084 22.5695V23.6528C48.4917 23.6528 48.8751 23.8334 49.2584 23.8334C54.0501 23.8334 57.8834 20.2223 57.8834 15.8889C57.8834 11.375 54.0501 7.76392 49.4501 7.76392C46.3834 7.76392 43.7001 9.20836 42.1667 11.7361C43.1251 12.2778 44.0834 13 44.8501 14.0834Z" fill="#9C2E29"/>
<path d="M23 29.6111C22.2333 28.5278 21.6583 27.2639 21.275 25.8195H19.7417C14.7583 25.6389 9.96667 27.2639 6.325 30.1528L5.75 30.6945V45.1389H9.58333V32.1389C12.65 30.1528 16.1 29.0695 19.7417 29.25C20.8917 29.25 22.0417 29.4306 23 29.6111Z" fill="#9C2E29"/>
<path d="M19.7416 23.6528C20.125 23.6528 20.5083 23.6528 20.8916 23.4722V22.3889C20.8916 21.4861 20.8916 20.5833 21.0833 19.8611C20.7 20.0416 20.125 20.0416 19.7416 20.0416C17.25 20.0416 15.1416 18.0555 15.1416 15.7083C15.1416 13.3611 17.25 11.375 19.7416 11.375C21.6583 11.375 23.3833 12.4583 24.15 14.0833C24.9166 13.1805 26.0666 12.2778 27.025 11.5555C24.5333 7.76387 19.3583 6.49998 15.3333 8.8472C11.3083 11.1944 9.96663 16.0694 12.4583 19.8611C13.9916 22.2083 16.675 23.6528 19.7416 23.6528Z" fill="#9C2E29"/>
<path d="M50.0251 40.9861L49.6417 40.4444C45.8084 36.4722 40.4417 34.125 34.6917 34.3056C28.9417 34.125 23.3834 36.4722 19.5501 40.4444L19.1667 40.9861V54.7083C19.1667 56.3333 20.5084 57.7778 22.4251 57.7778H46.9584C48.6834 57.7778 50.2168 56.3333 50.2168 54.7083V40.9861H50.0251ZM46.1917 54.1667H23.0001V42.25C26.0667 39.3611 30.2834 37.9167 34.6917 37.9167C38.9084 37.7361 43.1251 39.3611 46.1917 42.25V54.1667Z" fill="#9C2E29"/>
</svg>
