<svg width="39" height="51" viewBox="0 0 39 51" fill="none" xmlns="http://www.w3.org/2000/svg">
<path d="M0.375 6.375C0.375 4.68424 1.04665 3.06274 2.24219 1.86719C3.43774 0.67165 5.05924 0 6.75 0L32.25 0C33.9408 0 35.5623 0.67165 36.7578 1.86719C37.9534 3.06274 38.625 4.68424 38.625 6.375V44.625C38.625 46.3158 37.9534 47.9373 36.7578 49.1328C35.5623 50.3284 33.9408 51 32.25 51H6.75C5.05924 51 3.43774 50.3284 2.24219 49.1328C1.04665 47.9373 0.375 46.3158 0.375 44.625V6.375ZM6.75 7.96875V14.3438C6.75 14.7664 6.91791 15.1718 7.2168 15.4707C7.51569 15.7696 7.92106 15.9375 8.34375 15.9375H30.6562C31.0789 15.9375 31.4843 15.7696 31.7832 15.4707C32.0821 15.1718 32.25 14.7664 32.25 14.3438V7.96875C32.25 7.54606 32.0821 7.14069 31.7832 6.8418C31.4843 6.54291 31.0789 6.375 30.6562 6.375H8.34375C7.92106 6.375 7.51569 6.54291 7.2168 6.8418C6.91791 7.14069 6.75 7.54606 6.75 7.96875ZM6.75 20.7188V23.9062C6.75 24.3289 6.91791 24.7343 7.2168 25.0332C7.51569 25.3321 7.92106 25.5 8.34375 25.5H11.5312C11.9539 25.5 12.3593 25.3321 12.6582 25.0332C12.9571 24.7343 13.125 24.3289 13.125 23.9062V20.7188C13.125 20.2961 12.9571 19.8907 12.6582 19.5918C12.3593 19.2929 11.9539 19.125 11.5312 19.125H8.34375C7.92106 19.125 7.51569 19.2929 7.2168 19.5918C6.91791 19.8907 6.75 20.2961 6.75 20.7188ZM8.34375 28.6875C7.92106 28.6875 7.51569 28.8554 7.2168 29.1543C6.91791 29.4532 6.75 29.8586 6.75 30.2812V33.4688C6.75 33.8914 6.91791 34.2968 7.2168 34.5957C7.51569 34.8946 7.92106 35.0625 8.34375 35.0625H11.5312C11.9539 35.0625 12.3593 34.8946 12.6582 34.5957C12.9571 34.2968 13.125 33.8914 13.125 33.4688V30.2812C13.125 29.8586 12.9571 29.4532 12.6582 29.1543C12.3593 28.8554 11.9539 28.6875 11.5312 28.6875H8.34375ZM6.75 39.8438V43.0312C6.75 43.4539 6.91791 43.8593 7.2168 44.1582C7.51569 44.4571 7.92106 44.625 8.34375 44.625H11.5312C11.9539 44.625 12.3593 44.4571 12.6582 44.1582C12.9571 43.8593 13.125 43.4539 13.125 43.0312V39.8438C13.125 39.4211 12.9571 39.0157 12.6582 38.7168C12.3593 38.4179 11.9539 38.25 11.5312 38.25H8.34375C7.92106 38.25 7.51569 38.4179 7.2168 38.7168C6.91791 39.0157 6.75 39.4211 6.75 39.8438ZM17.9062 19.125C17.4836 19.125 17.0782 19.2929 16.7793 19.5918C16.4804 19.8907 16.3125 20.2961 16.3125 20.7188V23.9062C16.3125 24.3289 16.4804 24.7343 16.7793 25.0332C17.0782 25.3321 17.4836 25.5 17.9062 25.5H21.0938C21.5164 25.5 21.9218 25.3321 22.2207 25.0332C22.5196 24.7343 22.6875 24.3289 22.6875 23.9062V20.7188C22.6875 20.2961 22.5196 19.8907 22.2207 19.5918C21.9218 19.2929 21.5164 19.125 21.0938 19.125H17.9062ZM16.3125 30.2812V33.4688C16.3125 33.8914 16.4804 34.2968 16.7793 34.5957C17.0782 34.8946 17.4836 35.0625 17.9062 35.0625H21.0938C21.5164 35.0625 21.9218 34.8946 22.2207 34.5957C22.5196 34.2968 22.6875 33.8914 22.6875 33.4688V30.2812C22.6875 29.8586 22.5196 29.4532 22.2207 29.1543C21.9218 28.8554 21.5164 28.6875 21.0938 28.6875H17.9062C17.4836 28.6875 17.0782 28.8554 16.7793 29.1543C16.4804 29.4532 16.3125 29.8586 16.3125 30.2812ZM17.9062 38.25C17.4836 38.25 17.0782 38.4179 16.7793 38.7168C16.4804 39.0157 16.3125 39.4211 16.3125 39.8438V43.0312C16.3125 43.4539 16.4804 43.8593 16.7793 44.1582C17.0782 44.4571 17.4836 44.625 17.9062 44.625H21.0938C21.5164 44.625 21.9218 44.4571 22.2207 44.1582C22.5196 43.8593 22.6875 43.4539 22.6875 43.0312V39.8438C22.6875 39.4211 22.5196 39.0157 22.2207 38.7168C21.9218 38.4179 21.5164 38.25 21.0938 38.25H17.9062ZM25.875 20.7188V23.9062C25.875 24.3289 26.0429 24.7343 26.3418 25.0332C26.6407 25.3321 27.0461 25.5 27.4688 25.5H30.6562C31.0789 25.5 31.4843 25.3321 31.7832 25.0332C32.0821 24.7343 32.25 24.3289 32.25 23.9062V20.7188C32.25 20.2961 32.0821 19.8907 31.7832 19.5918C31.4843 19.2929 31.0789 19.125 30.6562 19.125H27.4688C27.0461 19.125 26.6407 19.2929 26.3418 19.5918C26.0429 19.8907 25.875 20.2961 25.875 20.7188ZM27.4688 28.6875C27.0461 28.6875 26.6407 28.8554 26.3418 29.1543C26.0429 29.4532 25.875 29.8586 25.875 30.2812V43.0312C25.875 43.4539 26.0429 43.8593 26.3418 44.1582C26.6407 44.4571 27.0461 44.625 27.4688 44.625H30.6562C31.0789 44.625 31.4843 44.4571 31.7832 44.1582C32.0821 43.8593 32.25 43.4539 32.25 43.0312V30.2812C32.25 29.8586 32.0821 29.4532 31.7832 29.1543C31.4843 28.8554 31.0789 28.6875 30.6562 28.6875H27.4688Z" fill="#9C2E29"/>
</svg>
