<svg width="45" height="41" viewBox="0 0 45 41" fill="none" xmlns="http://www.w3.org/2000/svg">
<path d="M22.5208 0.714722C29.3561 0.714722 36.1931 0.714722 43.0321 0.714722C44.4776 0.714722 45.0396 1.51177 44.2931 2.8045C43.3503 4.362 42.3236 5.86634 41.2175 7.31077C41.0526 7.5389 40.5521 7.59241 40.2054 7.59241C38.7179 7.62339 37.2305 7.59241 35.7318 7.61212C34.7308 7.61212 34.7001 7.6431 34.6973 8.62885C34.6973 16.4641 34.6973 24.3022 34.6805 32.1375C34.6805 32.9373 34.9601 33.2274 35.7234 33.2133C37.1214 33.1824 38.5194 33.2331 39.9174 33.1964C40.2394 33.168 40.5628 33.2323 40.8499 33.3819C41.137 33.5315 41.376 33.7602 41.5391 34.0414C42.3303 35.2496 43.1943 36.41 43.9911 37.6126C44.2234 37.9492 44.3773 38.3343 44.4413 38.7391C44.6174 40.1474 44.5363 40.2178 43.0908 40.2206L2.19408 40.2516C2.14757 40.2558 2.10079 40.2558 2.05428 40.2516C1.56778 40.1755 0.717805 40.1981 0.656293 40.0009C0.496922 39.4095 0.427023 38.5927 0.715009 38.1083C1.62627 36.584 2.63105 35.1185 3.72348 33.7203C3.97512 33.3936 4.61539 33.2612 5.08791 33.2331C6.24545 33.1655 7.41137 33.2077 8.5745 33.2105C10.1235 33.2105 10.1319 33.2105 10.1347 31.7235C10.1347 25.7151 10.1347 19.7068 10.1347 13.6984C10.1347 12.0564 10.1486 10.4145 10.1347 8.77249C10.1347 7.64592 10.1067 7.64592 8.93797 7.62339C7.53999 7.62339 6.142 7.59241 4.74401 7.62339C4.46874 7.64086 4.19431 7.57786 3.95375 7.44195C3.71318 7.30605 3.51671 7.10304 3.38796 6.85732C2.6638 5.71386 1.85017 4.62672 1.09806 3.50297C0.85132 3.16824 0.662281 2.79407 0.538862 2.39612C0.236897 1.06959 0.516494 0.723171 1.86975 0.720355C8.75344 0.720355 15.6371 0.720355 22.5208 0.720355V0.714722ZM41.8131 38.2913C41.3238 37.5056 40.9743 37.0183 40.6947 36.5001C40.1606 35.5087 39.4281 35.1144 38.2454 35.137C34.0151 35.2214 29.7792 35.1736 25.5461 35.1736C25.1295 35.1736 24.7073 35.151 24.2907 35.1736C23.8741 35.1961 23.7315 34.9905 23.7315 34.5878C23.7315 34.3061 23.6616 34.0245 23.6616 33.7428C23.6765 27.5467 23.6951 21.3506 23.7175 15.1545C23.7175 12.3381 23.7538 9.52165 23.7399 6.70524C23.7399 6.04901 23.9356 5.77019 24.6094 5.7899C25.6775 5.82652 26.7483 5.7899 27.8192 5.7899H38.4243C39.0758 5.7899 39.7496 5.82088 40.183 5.18437C40.7226 4.39014 41.2483 3.58747 41.8103 2.73972C40.2026 2.39612 4.42527 2.45808 3.28451 2.81858C3.66482 3.34552 4.01669 3.89269 4.33859 4.45774C4.86983 5.50263 5.6527 5.83215 6.81583 5.81525C11.1887 5.74766 15.5616 5.78145 19.9345 5.78427C21.2487 5.78427 21.2515 5.78427 21.2487 7.0939C21.2487 14.9329 21.2403 22.771 21.2235 30.6082C21.2235 31.8727 21.2235 33.1429 21.2375 34.4075C21.2375 34.9483 21.0418 35.1792 20.5049 35.1398C20.1806 35.1172 19.8535 35.1398 19.5291 35.1398C15.1562 35.1398 10.7833 35.1398 6.41041 35.1567C5.96865 35.1567 5.35633 35.1567 5.12426 35.4383C4.43086 36.2748 3.85489 37.2014 3.08879 38.2998C16.1208 38.2998 28.8257 38.3223 41.8214 38.2913H41.8131ZM19.5878 20.3733C19.5878 16.6688 19.5878 12.9633 19.5878 9.25691C19.5878 7.60086 19.5878 7.60086 17.8851 7.61776C16.571 7.61776 16.5514 7.61776 16.5514 8.94992C16.5514 16.4604 16.5514 23.9708 16.5514 31.4812C16.5514 33.2246 16.5822 33.2246 18.2737 33.2133C19.5823 33.2133 19.585 33.2133 19.585 31.9291C19.5869 28.0668 19.5878 24.2149 19.5878 20.3733ZM28.3448 20.5282H28.3253V10.13C28.3253 9.52165 28.3253 8.91612 28.3253 8.30778C28.3253 7.85997 28.1379 7.60367 27.6514 7.63184C27.3718 7.64874 27.0922 7.63184 26.8126 7.63184C25.3476 7.63184 25.2805 7.70788 25.2805 9.23438C25.2805 11.5269 25.2805 13.8223 25.2805 16.1177C25.2805 21.4539 25.2805 26.7919 25.2805 32.1318C25.2805 33.0838 25.3783 33.1711 26.3066 33.2105C26.4911 33.2105 26.6784 33.2105 26.8658 33.2105C28.342 33.2105 28.3448 33.2105 28.3448 31.7713C28.3467 28.0142 28.3467 24.2665 28.3448 20.5282ZM32.947 20.6606C32.947 17.0462 32.947 13.4327 32.947 9.82019C32.947 9.34985 32.947 8.88233 32.9274 8.41199C32.939 8.30634 32.9268 8.19943 32.8918 8.09916C32.8568 7.99889 32.7999 7.90781 32.7253 7.83266C32.6507 7.7575 32.5603 7.70019 32.4607 7.66494C32.3612 7.6297 32.255 7.61742 32.1502 7.62902C31.823 7.62902 31.4987 7.62902 31.1744 7.61212C30.5173 7.57269 30.2377 7.91066 30.2293 8.53591C30.2293 8.76967 30.2293 9.00343 30.2293 9.24001C30.2293 15.6239 30.2293 22.0078 30.2293 28.3916C30.2293 29.659 30.2126 30.9264 30.2433 32.191C30.2433 32.4923 30.3859 33.0359 30.5229 33.05C31.1967 33.1655 31.9209 33.2838 32.5752 33.1317C33.2294 32.9796 32.9442 32.2614 32.947 31.7882C32.9498 28.0734 32.9498 24.367 32.9498 20.6606H32.947ZM14.6781 20.5029H14.7256C14.7256 16.6134 14.7256 12.7239 14.7256 8.83445C14.7256 8.45423 14.5691 7.79237 14.3789 7.74731C13.7549 7.58178 13.0982 7.58859 12.4777 7.76703C12.2204 7.85715 12.0918 8.63167 12.0918 9.09637C12.0667 15.0982 12.0723 21.0999 12.0751 27.1017C12.0751 28.8338 12.117 30.5687 12.0751 32.3036C12.0751 32.9599 12.2456 33.2781 12.9139 33.2246C13.1932 33.209 13.4733 33.209 13.7526 33.2246C14.3957 33.2471 14.7201 33.1401 14.7061 32.2924C14.6418 28.3522 14.6781 24.4205 14.6781 20.5029Z" fill="#BC372E"/>
</svg>
