<svg width="137" height="49" viewBox="0 0 137 49" fill="none" xmlns="http://www.w3.org/2000/svg">
<path d="M24.5208 4.71472C31.3561 4.71472 38.1931 4.71472 45.0321 4.71472C46.4776 4.71472 47.0396 5.51177 46.2931 6.8045C45.3503 8.362 44.3236 9.86634 43.2175 11.3108C43.0526 11.5389 42.5521 11.5924 42.2054 11.5924C40.7179 11.6234 39.2305 11.5924 37.7318 11.6121C36.7309 11.6121 36.7001 11.6431 36.6973 12.6288C36.6973 20.4641 36.6973 28.3022 36.6805 36.1375C36.6805 36.9373 36.9601 37.2274 37.7234 37.2133C39.1214 37.1824 40.5194 37.2331 41.9174 37.1964C42.2394 37.168 42.5628 37.2323 42.8499 37.3819C43.137 37.5315 43.376 37.7602 43.5391 38.0414C44.3303 39.2496 45.1943 40.41 45.9911 41.6126C46.2234 41.9492 46.3773 42.3343 46.4413 42.7391C46.6174 44.1474 46.5363 44.2178 45.0908 44.2206L4.19408 44.2516C4.14757 44.2558 4.10079 44.2558 4.05428 44.2516C3.56778 44.1755 2.7178 44.1981 2.65629 44.0009C2.49692 43.4095 2.42702 42.5927 2.71501 42.1083C3.62627 40.584 4.63105 39.1185 5.72348 37.7203C5.97512 37.3936 6.6154 37.2612 7.08791 37.2331C8.24545 37.1655 9.41137 37.2077 10.5745 37.2105C12.1235 37.2105 12.1319 37.2105 12.1347 35.7235C12.1347 29.7151 12.1347 23.7068 12.1347 17.6984C12.1347 16.0564 12.1486 14.4145 12.1347 12.7725C12.1347 11.6459 12.1067 11.6459 10.938 11.6234C9.53999 11.6234 8.142 11.5924 6.74401 11.6234C6.46874 11.6409 6.19431 11.5779 5.95375 11.442C5.71318 11.3061 5.51671 11.103 5.38796 10.8573C4.6638 9.71386 3.85017 8.62672 3.09806 7.50297C2.85132 7.16824 2.66228 6.79407 2.53886 6.39612C2.2369 5.06959 2.51649 4.72317 3.86975 4.72035C10.7534 4.72035 17.6371 4.72035 24.5208 4.72035V4.71472ZM43.8131 42.2913C43.3238 41.5056 42.9743 41.0183 42.6947 40.5001C42.1606 39.5087 41.4281 39.1144 40.2454 39.137C36.0151 39.2215 31.7792 39.1736 27.5461 39.1736C27.1295 39.1736 26.7073 39.151 26.2907 39.1736C25.8741 39.1961 25.7315 38.9905 25.7315 38.5878C25.7315 38.3061 25.6616 38.0245 25.6616 37.7428C25.6765 31.5467 25.6951 25.3506 25.7175 19.1545C25.7175 16.3381 25.7538 13.5217 25.7399 10.7052C25.7399 10.049 25.9356 9.77019 26.6094 9.7899C27.6775 9.82652 28.7483 9.7899 29.8192 9.7899H40.4243C41.0758 9.7899 41.7496 9.82088 42.183 9.18437C42.7226 8.39014 43.2483 7.58747 43.8103 6.73972C42.2026 6.39612 6.42527 6.45808 5.28451 6.81858C5.66482 7.34552 6.01669 7.89269 6.33859 8.45774C6.86983 9.50263 7.6527 9.83215 8.81583 9.81525C13.1887 9.74766 17.5616 9.78145 21.9345 9.78427C23.2487 9.78427 23.2515 9.78427 23.2487 11.0939C23.2487 18.9329 23.2403 26.771 23.2235 34.6082C23.2235 35.8727 23.2235 37.1429 23.2375 38.4075C23.2375 38.9483 23.0418 39.1792 22.5049 39.1398C22.1806 39.1172 21.8535 39.1398 21.5291 39.1398C17.1562 39.1398 12.7833 39.1398 8.41041 39.1567C7.96865 39.1567 7.35633 39.1567 7.12426 39.4383C6.43086 40.2748 5.85489 41.2014 5.08879 42.2998C18.1208 42.2998 30.8257 42.3223 43.8214 42.2913H43.8131ZM21.5878 24.3733C21.5878 20.6688 21.5878 16.9633 21.5878 13.2569C21.5878 11.6009 21.5878 11.6009 19.8851 11.6178C18.571 11.6178 18.5514 11.6178 18.5514 12.9499C18.5514 20.4604 18.5514 27.9708 18.5514 35.4812C18.5514 37.2246 18.5822 37.2246 20.2737 37.2133C21.5823 37.2133 21.585 37.2133 21.585 35.9291C21.5869 32.0668 21.5878 28.2149 21.5878 24.3733ZM30.3448 24.5282H30.3253V14.13C30.3253 13.5217 30.3253 12.9161 30.3253 12.3078C30.3253 11.86 30.1379 11.6037 29.6514 11.6318C29.3718 11.6487 29.0922 11.6318 28.8126 11.6318C27.3476 11.6318 27.2805 11.7079 27.2805 13.2344C27.2805 15.5269 27.2805 17.8223 27.2805 20.1177C27.2805 25.4539 27.2805 30.7919 27.2805 36.1318C27.2805 37.0838 27.3783 37.1711 28.3066 37.2105C28.4911 37.2105 28.6784 37.2105 28.8658 37.2105C30.342 37.2105 30.3448 37.2105 30.3448 35.7713C30.3467 32.0142 30.3467 28.2665 30.3448 24.5282ZM34.947 24.6606C34.947 21.0462 34.947 17.4327 34.947 13.8202C34.947 13.3499 34.947 12.8823 34.9274 12.412C34.939 12.3063 34.9268 12.1994 34.8918 12.0992C34.8568 11.9989 34.7999 11.9078 34.7253 11.8327C34.6507 11.7575 34.5603 11.7002 34.4607 11.6649C34.3612 11.6297 34.255 11.6174 34.1502 11.629C33.823 11.629 33.4987 11.629 33.1744 11.6121C32.5173 11.5727 32.2377 11.9107 32.2293 12.5359C32.2293 12.7697 32.2293 13.0034 32.2293 13.24C32.2293 19.6239 32.2293 26.0078 32.2293 32.3916C32.2293 33.659 32.2126 34.9264 32.2433 36.191C32.2433 36.4923 32.3859 37.0359 32.5229 37.05C33.1967 37.1655 33.9209 37.2838 34.5752 37.1317C35.2294 36.9796 34.9442 36.2614 34.947 35.7882C34.9498 32.0734 34.9498 28.367 34.9498 24.6606H34.947ZM16.6781 24.5029H16.7256C16.7256 20.6134 16.7256 16.7239 16.7256 12.8344C16.7256 12.4542 16.5691 11.7924 16.3789 11.7473C15.7549 11.5818 15.0982 11.5886 14.4777 11.767C14.2204 11.8572 14.0918 12.6317 14.0918 13.0964C14.0667 19.0982 14.0723 25.0999 14.0751 31.1017C14.0751 32.8338 14.117 34.5687 14.0751 36.3036C14.0751 36.9599 14.2456 37.2781 14.9139 37.2246C15.1932 37.209 15.4733 37.209 15.7526 37.2246C16.3957 37.2471 16.7201 37.1401 16.7061 36.2924C16.6418 32.3522 16.6781 28.4205 16.6781 24.5029Z" fill="#BC372E"/>
<path d="M71.2499 14.62V12.7077C71.2499 10.5024 71.2359 8.3 71.2499 6.09475C71.2499 5.07521 71.2862 5.05549 72.2425 5.04986C73.4978 5.04986 74.7588 5.10337 76.0058 5.04986C76.7719 5.01888 76.9649 5.35403 76.9593 6.04124C76.9453 7.86909 76.976 9.70258 76.9732 11.5276C76.9732 16.0339 76.9602 20.5401 76.9341 25.0464C76.9341 26.311 76.9089 26.3138 75.5864 26.3222C74.468 26.3222 73.3497 26.2744 72.2313 26.3222C71.4708 26.3673 71.0374 26.0772 70.6907 25.4154C69.4213 22.9848 68.1128 20.5739 66.8155 18.1575C66.6002 17.7603 66.3541 17.3773 66.1221 16.9886L65.8117 17.0309C65.7642 17.5097 65.6803 17.9857 65.6775 18.4644C65.6635 20.619 65.6775 22.7764 65.6775 24.9422C65.6775 26.2716 65.6775 26.2744 64.4221 26.2997C63.1667 26.3251 62.0064 26.3279 60.7873 26.3589C60.0967 26.3786 59.8087 26.1223 59.8115 25.3703C59.8395 18.9461 59.8255 12.5218 59.8367 6.09757C59.8367 5.09774 59.8675 5.08647 60.8433 5.07239C62.0511 5.05549 63.2646 5.13154 64.478 5.03015C65.3727 4.95692 65.8285 5.3315 66.2087 6.0694C67.4082 8.39576 68.6412 10.7052 69.8715 13.0119C70.1734 13.5752 70.5173 14.1384 70.8417 14.682L71.2499 14.62Z" fill="#BC372E"/>
<path d="M126.138 26.311C119.774 26.2772 115.435 20.8415 115.6 15.3889C115.649 13.9575 115.984 12.5506 116.583 11.2518C117.183 9.95291 118.035 8.78848 119.089 7.82748C120.144 6.86648 121.379 6.12845 122.722 5.65714C124.064 5.18583 125.487 4.99082 126.906 5.08367C132.473 5.40474 137.028 9.67443 137 15.8677C136.975 21.9202 131.783 26.5307 126.138 26.311ZM122.005 14.989C121.843 16.907 122.237 18.3321 123.073 19.6136C124.533 21.8498 127.309 22.0582 129.124 20.1036C131.05 18.0307 131.478 14.0145 129.205 11.3502C127.639 9.51389 125.629 9.3787 123.82 10.9812C123.249 11.4788 122.792 12.0943 122.479 12.7859C122.166 13.4775 122.004 14.2289 122.005 14.989Z" fill="#BC372E"/>
<path d="M95.0967 5.06951C97.1825 5.06951 98.9915 5.08359 100.8 5.06951C101.36 5.06951 101.614 5.42156 101.874 5.81868C102.741 7.14802 103.61 8.47362 104.483 9.79545C105.078 10.6995 105.213 10.7108 105.814 9.81235C106.652 8.57031 107.469 7.32546 108.227 6.04117C108.389 5.71008 108.65 5.43783 108.972 5.26183C109.294 5.08582 109.663 5.01471 110.027 5.05824C111.682 5.12584 113.343 5.07796 115.186 5.07796C114.859 5.66377 114.657 6.07497 114.408 6.45519C112.566 9.2716 110.737 12.088 108.847 14.8594C108.38 15.5438 108.523 16.0197 108.92 16.6196C110.743 19.3703 112.555 22.1379 114.355 24.9224C114.604 25.3026 114.819 25.7054 115.18 26.3306C113.841 26.3306 112.709 26.3306 111.573 26.3306C108.791 26.3503 108.797 26.3503 107.315 23.9705C106.658 22.9171 105.967 21.8863 105.173 20.6584C104.522 21.6188 103.996 22.3736 103.496 23.1396C102.953 23.9564 102.467 24.8295 101.871 25.5899C101.608 25.9555 101.216 26.2055 100.775 26.2884C98.9747 26.3616 97.1713 26.3194 95.1973 26.3194C95.3282 26.0028 95.4776 25.6943 95.6447 25.3956C97.5152 22.4919 99.355 19.5684 101.295 16.7126C101.813 15.9493 101.785 15.4367 101.295 14.7157C99.4276 11.9247 97.6047 9.10262 95.7705 6.28902C95.5664 5.97076 95.4126 5.63279 95.0967 5.06951Z" fill="#BC372E"/>
<path d="M80.1914 15.7888C80.1914 12.5969 80.1914 9.40494 80.1914 6.213C80.1914 5.08644 80.2053 5.06954 81.3461 5.06672C84.8355 5.05358 88.3249 5.04607 91.8142 5.04419C93.0137 5.04419 93.0165 5.06109 93.0277 6.31721C93.0277 7.21001 93.0109 8.10282 93.0277 8.9928C93.0501 9.65185 92.79 9.91096 92.1274 9.89969C90.4973 9.86871 88.8701 9.87716 87.2428 9.89969C86.0489 9.89969 86.0294 9.92504 86.0322 11.1699C86.0322 13.5075 85.7022 13.2569 88.0956 13.2709C89.1664 13.2709 90.2373 13.2907 91.3054 13.2484C91.9456 13.2231 92.2476 13.4118 92.2224 14.0933C92.1861 15.0791 92.2224 16.0648 92.2224 17.0506C92.2224 18.0363 92.1414 18.1039 91.2075 18.1208C90.0024 18.1433 88.7946 18.1208 87.5895 18.1462C86.0405 18.1687 86.0378 18.1743 86.0489 19.6896C86.0657 21.5625 85.6883 21.4442 87.8663 21.4498C89.2168 21.4498 90.5644 21.4188 91.9149 21.4301C92.8879 21.4301 92.9857 21.5259 93.0193 22.4412C93.0529 23.3565 93.0473 24.3197 93.0193 25.2576C92.9997 26.2462 92.955 26.294 91.9876 26.2997C89.8934 26.2997 87.7936 26.2997 85.7078 26.2997C84.2651 26.2997 82.8224 26.2997 81.3797 26.3166C80.2025 26.3307 80.1858 26.3391 80.1802 25.0661C80.1802 21.968 80.1802 18.87 80.1802 15.7719L80.1914 15.7888Z" fill="#BC372E"/>
<path d="M55.8355 15.7861C55.8355 18.8334 55.8355 21.8808 55.8355 24.9282C55.8355 26.3026 55.8048 26.3082 54.4068 26.311C53.1989 26.311 51.9911 26.2772 50.772 26.2941C50.2128 26.2941 50.0115 26.066 50.0339 25.5421C50.0339 25.3084 50.0339 25.0746 50.0339 24.838C50.0339 18.6945 50.0339 12.5519 50.0339 6.41022C50.0339 4.74291 50.1457 5.08087 51.4151 5.06116C52.623 5.04426 53.8308 5.08087 55.0499 5.06116C55.5783 5.06116 55.816 5.29211 55.8439 5.79624C55.8439 6.03001 55.8663 6.26377 55.8663 6.49753C55.8663 9.59371 55.8663 12.6918 55.8663 15.7917L55.8355 15.7861Z" fill="#BC372E"/>
<path d="M48.8792 0C48.3704 2.53477 48.3704 2.53477 46.114 2.53477H2.56671C0.279598 2.53477 0.279598 2.53477 0 0H48.8792Z" fill="#BC372E"/>
<path d="M24.3473 49.0056H1.31688C1.08482 49.0056 0.852752 49.0197 0.620686 49.0056C0.489276 49.0056 0.248822 48.9521 0.24323 48.9042C0.158804 48.4236 0.143737 47.9331 0.198494 47.4481C0.282373 47.0482 0.25721 46.4427 0.928244 46.423C1.11557 46.423 1.30011 46.4427 1.48744 46.4455H44.333C45.3563 46.4455 46.3796 46.4145 47.4085 46.3779C48.0404 46.3554 48.4934 46.499 48.5465 47.2566C48.586 47.6283 48.6715 47.9935 48.8009 48.3438C48.9435 48.7831 48.7618 48.9634 48.3592 48.9887C48.032 49.0113 47.7077 49.0113 47.3806 49.0113H24.3473V49.0056Z" fill="#BC372E"/>
<path d="M92.7201 35.3094C92.6418 35.5545 92.5579 35.8051 92.4936 36.0417C92.3398 36.605 92.214 36.9007 91.6381 36.8866C90.3323 36.8359 90.036 37.1683 90.2401 35.4784C90.5197 33.352 90.816 31.2341 91.0789 29.1077C91.132 28.6514 91.2662 28.4825 91.7387 28.4402C94.2076 28.2205 94.4396 28.4149 94.7248 30.8454C94.9205 32.5071 95.1834 34.1632 95.4518 35.8164C95.5329 36.3149 95.6391 36.7486 94.9737 36.881C94.0482 37.0641 93.475 36.85 93.2961 36.236C93.201 35.9347 93.1087 35.6305 93.0165 35.3292L92.7201 35.3094ZM92.5579 33.7323L92.955 33.7492V32.0593H92.653L92.5579 33.7323Z" fill="black"/>
<path d="M113.819 30.0427C113.806 30.0157 113.787 29.9929 113.762 29.9769C113.737 29.9608 113.708 29.9523 113.679 29.9523C113.649 29.9523 113.621 29.9608 113.596 29.9769C113.571 29.9929 113.551 30.0157 113.539 30.0427C113.478 30.1496 113.438 30.2675 113.423 30.3898C113.407 30.512 113.415 30.6362 113.447 30.7553C113.479 30.8743 113.534 30.9858 113.609 31.0834C113.684 31.181 113.777 31.2628 113.883 31.3242C114.279 31.5586 114.653 31.8282 115.001 32.1297C115.431 32.5374 115.779 33.024 116.027 33.5632C116.411 34.5687 116.427 35.6924 115.58 36.4275C114.677 37.2133 113.508 37.1372 112.423 36.7091C111.697 36.4134 111.025 34.9658 111.252 34.2504C111.299 34.0983 111.464 33.8899 111.593 33.8758C111.979 33.8028 112.373 33.7942 112.762 33.8505C113.455 33.9716 113.38 34.9771 113.38 34.9771C113.38 34.9771 113.293 35.4558 113.623 35.5403C114.073 35.3347 114.149 34.1321 113.343 33.5491C112.969 33.2675 112.566 33.0365 112.197 32.7549C111.285 32.0564 111.051 31.0848 111.218 30.0033C111.406 28.7866 112.577 28.0571 113.958 28.2486C115.384 28.4458 116.05 29.2006 115.952 30.4398C115.921 30.8538 115.77 31.0031 115.373 31.0369C114.448 31.1242 114.188 31.0313 113.819 30.0427Z" fill="black"/>
<path d="M50.048 32.6198C50.048 31.4932 50.0703 30.3667 50.048 29.2401C50.0284 28.6177 50.2744 28.3952 50.8672 28.443C51.5158 28.4768 52.1701 28.4233 52.8244 28.443C54.0574 28.505 54.5802 29.0063 54.7144 30.2399C54.7684 30.7074 54.7759 31.1791 54.7368 31.6481C54.625 32.9803 54.4264 33.2732 53.0788 33.4563C52.3518 33.5548 52.268 33.8703 52.2987 34.4505C52.3239 34.918 52.3183 35.3883 52.2987 35.8587C52.2624 36.805 52.2009 36.8529 51.2251 36.8726C50.1067 36.8923 50.0731 36.8726 50.0619 35.7038C50.0619 34.673 50.0619 33.6393 50.0619 32.6057L50.048 32.6198ZM52.405 30.1723V32.0086C53.062 31.6481 52.9725 30.3441 52.3966 30.1723H52.405Z" fill="black"/>
<path d="M134.486 28.4458C134.903 28.4458 135.325 28.4204 135.739 28.4458C136.153 28.4711 136.76 28.2176 136.748 29.009C136.748 29.5385 136.95 30.2201 136.002 30.1356C135.42 30.0877 135.482 30.5384 135.482 30.9045C135.482 32.5465 135.499 34.1884 135.462 35.8276C135.462 36.1543 135.289 36.7176 135.116 36.7542C134.576 36.8477 134.022 36.8266 133.491 36.6922C133.349 36.6584 133.256 36.1289 133.251 35.8248C133.228 34.1856 133.231 32.5437 133.251 30.9017C133.251 30.4144 133.17 30.0765 132.577 30.1215C131.841 30.1779 131.948 29.6625 131.942 29.178C131.942 28.6345 132.146 28.4063 132.68 28.4232C133.281 28.4683 133.888 28.4458 134.486 28.4458Z" fill="black"/>
<path d="M70.7185 32.5465C70.7185 31.4678 70.7437 30.3919 70.7185 29.3161C70.6962 28.6317 70.959 28.4486 71.63 28.4486H72.1892C72.7848 28.4486 73.0112 28.6007 72.9945 29.2372C72.9581 30.7806 73.0112 32.3353 72.9945 33.8702C72.9945 34.242 72.9945 35.1263 72.9945 35.1263C72.9945 35.1263 73.4698 35.1094 73.85 35.1263C74.591 35.1686 74.3337 35.7854 74.3617 36.205C74.3897 36.6725 74.124 36.881 73.6711 36.8669C73.5788 36.8669 73.4866 36.8669 73.3915 36.8669C70.1342 36.8669 70.8192 37.1936 70.7465 34.3631C70.7046 33.7632 70.7185 33.1548 70.7185 32.5465Z" fill="black"/>
<path d="M51.1803 43.7671C50.9571 43.6702 50.7639 43.5145 50.6211 43.3165C50.4834 43.1206 50.4101 42.8862 50.4114 42.6462H51.0517C51.0693 42.8632 51.1695 43.065 51.3313 43.2095C51.5213 43.3702 51.766 43.45 52.0135 43.432C52.2575 43.4467 52.4983 43.3705 52.6901 43.2179C52.7716 43.1495 52.8364 43.0631 52.8796 42.9654C52.9227 42.8678 52.943 42.7614 52.939 42.6546C52.9465 42.4976 52.8945 42.3436 52.7936 42.2237C52.695 42.1103 52.5702 42.0232 52.4301 41.9702C52.2383 41.8962 52.0422 41.8341 51.8429 41.7843C51.5939 41.7224 51.35 41.6414 51.1132 41.5421C50.9262 41.4618 50.764 41.3324 50.6435 41.1676C50.5034 40.9661 50.4344 40.7231 50.4477 40.4775C50.4433 40.2396 50.5106 40.0059 50.6407 39.8072C50.7682 39.6056 50.9507 39.4453 51.1663 39.3453C51.4173 39.2344 51.6891 39.1797 51.9632 39.1848C52.3429 39.1696 52.7165 39.2848 53.0228 39.5115C53.1567 39.6144 53.2674 39.7446 53.3479 39.8936C53.4284 40.0426 53.4767 40.207 53.4898 40.3761H52.8299C52.8162 40.2835 52.7845 40.1945 52.7365 40.1142C52.6885 40.034 52.6252 39.9641 52.5503 39.9086C52.3657 39.766 52.1368 39.6942 51.9044 39.7058C51.6832 39.6962 51.4655 39.765 51.2893 39.9002C51.2083 39.9685 51.1446 40.0551 51.1033 40.153C51.062 40.2509 51.0443 40.3573 51.0517 40.4634C51.0454 40.6147 51.0964 40.7627 51.1943 40.8775C51.2902 40.9848 51.41 41.0677 51.5438 41.1197C51.7352 41.1927 51.9302 41.2557 52.1281 41.3084C52.3786 41.3749 52.6243 41.4587 52.8635 41.559C53.0509 41.6438 53.2144 41.7745 53.3388 41.9393C53.4807 42.1421 53.5506 42.3871 53.5373 42.6349C53.5364 42.8604 53.4745 43.0814 53.3584 43.2742C53.2297 43.4815 53.0468 43.6491 52.8299 43.7587C52.5699 43.8896 52.2817 43.9535 51.9911 43.9445C51.7114 43.9444 51.4349 43.8839 51.1803 43.7671Z" fill="#BC372E"/>
<path d="M55.0164 39.2439V43.8854H54.4153V39.2439H55.0164Z" fill="#BC372E"/>
<path d="M58.6455 39.2439V39.7368H56.6436V41.3027H58.2681V41.7956H56.6436V43.8854H56.0425V39.2439H58.6455Z" fill="#BC372E"/>
<path d="M62.0958 42.8518H60.0855L59.7165 43.8854H59.0818L60.7594 39.2721H61.4528L63.1108 43.8854H62.4761L62.0958 42.8518ZM61.9225 42.3617L61.0837 40.0184L60.2449 42.3617H61.9225Z" fill="#BC372E"/>
<path d="M66.6616 39.2439V39.7368H65.4062V43.8854H64.805V39.7368H63.5413V39.2439H66.6616Z" fill="#BC372E"/>
<path d="M71.932 41.7027C72.0705 41.8138 72.1832 41.9541 72.2619 42.1139C72.3514 42.2961 72.3932 42.4983 72.3835 42.7014C72.3737 42.9045 72.3126 43.1016 72.206 43.2743C72.0779 43.4699 71.8977 43.6251 71.6859 43.7221C71.4341 43.8367 71.1598 43.8926 70.8835 43.8854H69.1667V39.244H70.8164C71.0912 39.2364 71.3643 39.2903 71.616 39.4017C71.819 39.491 71.9919 39.6378 72.1137 39.8242C72.2235 40.0046 72.2807 40.2125 72.2787 40.4241C72.2867 40.6703 72.2085 40.9116 72.0578 41.1056C71.9036 41.2898 71.6996 41.4248 71.4706 41.4943C71.6398 41.5221 71.7988 41.594 71.932 41.7027ZM69.7679 41.2493H70.7772C71.0121 41.264 71.2444 41.193 71.4315 41.0493C71.5049 40.9776 71.5632 40.8918 71.6031 40.797C71.6429 40.7022 71.6635 40.6003 71.6635 40.4973C71.6635 40.3943 71.6429 40.2924 71.6031 40.1976C71.5632 40.1027 71.5049 40.0169 71.4315 39.9453C71.2413 39.7992 71.0046 39.728 70.766 39.7453H69.7679V41.2493ZM71.5321 43.1729C71.6159 43.1 71.682 43.0088 71.7256 42.9064C71.7692 42.8039 71.7891 42.6928 71.7838 42.5814C71.7873 42.4647 71.7639 42.3488 71.7153 42.2427C71.6668 42.1367 71.5945 42.0434 71.5042 41.9703C71.3027 41.8128 71.0515 41.7338 70.7968 41.7478H69.7539V43.3869H70.8164C71.0728 43.4046 71.3269 43.3286 71.5321 43.1729Z" fill="#BC372E"/>
<path d="M75.9386 42.8518H73.9311L73.5592 43.8854H72.9246L74.6021 39.2721H75.2955L76.9536 43.8854H76.3217L75.9386 42.8518ZM75.7681 42.3617L74.9293 40.0184L74.0905 42.3617H75.7681Z" fill="#BC372E"/>
<path d="M80.0963 43.8854L78.9975 41.9871H78.2706V43.8854H77.6694V39.2439H79.1569C79.4612 39.2354 79.7634 39.297 80.0404 39.4242C80.2638 39.5287 80.4509 39.6984 80.5772 39.9114C80.6993 40.1234 80.7612 40.365 80.7562 40.6099C80.7587 40.915 80.6603 41.2123 80.4766 41.4548C80.2712 41.7134 79.9787 41.8868 79.6546 41.9421L80.8093 43.8854H80.0963ZM78.2706 41.5027H79.1569C79.2894 41.5128 79.4227 41.4964 79.5489 41.4543C79.6751 41.4122 79.7918 41.3454 79.8922 41.2577C79.9748 41.1723 80.039 41.0708 80.0808 40.9593C80.1227 40.8479 80.1413 40.7289 80.1355 40.6099C80.1418 40.4924 80.1237 40.3748 80.0823 40.2647C80.0409 40.1546 79.9771 40.0544 79.895 39.9706C79.6856 39.8052 79.4222 39.7249 79.1569 39.7453H78.2706V41.5027Z" fill="#BC372E"/>
<path d="M81.7683 40.3395C81.9656 39.9857 82.2558 39.6934 82.6071 39.4946C82.9622 39.2885 83.3659 39.1825 83.7758 39.1876C84.2399 39.1781 84.6966 39.3054 85.0899 39.5538C85.4667 39.8025 85.754 40.167 85.9091 40.593H85.1877C85.0709 40.3257 84.8758 40.1006 84.6286 39.9481C84.369 39.7909 84.0702 39.7117 83.7674 39.7199C83.4633 39.7154 83.1637 39.7943 82.9006 39.9481C82.6434 40.0997 82.4347 40.3226 82.2995 40.5902C82.1555 40.8936 82.0808 41.2256 82.0808 41.5619C82.0808 41.8981 82.1555 42.2301 82.2995 42.5335C82.4364 42.8 82.6446 43.0224 82.9006 43.1757C83.164 43.3285 83.4636 43.4064 83.7674 43.401C84.0695 43.4097 84.3679 43.3326 84.6286 43.1785C84.8756 43.0269 85.0708 42.8029 85.1877 42.5364H85.9091C85.7536 42.9593 85.4662 43.32 85.0899 43.5643C84.6963 43.8118 84.2396 43.938 83.7758 43.9277C83.3663 43.9323 82.963 43.8273 82.6071 43.6235C82.2547 43.4262 81.9642 43.1335 81.7683 42.7786C81.5612 42.4075 81.456 41.9875 81.4635 41.5619C81.4568 41.1345 81.5619 40.713 81.7683 40.3395Z" fill="#BC372E"/>
<path d="M90.3381 39.2439V43.8854H89.7509V41.7815H87.4051V43.8854H86.804V39.2439H87.4051V41.283H89.7509V39.2439H90.3381Z" fill="#BC372E"/>
<path d="M94.0846 42.8518H92.0771L91.7081 43.8854H91.0762L92.7398 39.2721H93.4332L95.094 43.8854H94.4593L94.0846 42.8518ZM93.9141 42.3617L93.0753 40.0184L92.2365 42.3617H93.9141Z" fill="#BC372E"/>
<path d="M96.4611 43.7671C96.238 43.6702 96.0448 43.5145 95.9019 43.3165C95.7646 43.1202 95.6904 42.8862 95.6895 42.6461H96.3325C96.3502 42.8632 96.4504 43.065 96.6121 43.2094C96.8033 43.3701 97.0488 43.4499 97.2971 43.4319C97.5411 43.4462 97.7817 43.37 97.9738 43.2179C98.0548 43.149 98.1193 43.0626 98.1624 42.965C98.2055 42.8674 98.2261 42.7613 98.2226 42.6546C98.2288 42.4978 98.177 42.3442 98.0772 42.2237C97.9787 42.1102 97.8538 42.0232 97.7137 41.9702C97.5212 41.8958 97.3241 41.8338 97.1238 41.7843C96.8751 41.7214 96.6312 41.6405 96.394 41.5421C96.208 41.4603 96.0461 41.3312 95.9243 41.1675C95.7871 40.9648 95.7194 40.7225 95.7314 40.4775C95.7273 40.24 95.7935 40.0067 95.9215 39.8072C96.0544 39.607 96.2418 39.4495 96.4611 39.3538C96.7121 39.2428 96.984 39.1881 97.258 39.1932C97.6378 39.1781 98.0114 39.2933 98.3177 39.5199C98.4515 39.6228 98.5623 39.7531 98.6427 39.902C98.7232 40.051 98.7715 40.2155 98.7846 40.3846H98.122C98.0935 40.1977 97.993 40.0297 97.8424 39.917C97.6566 39.7745 97.4269 39.7027 97.1937 39.7143C96.9733 39.7046 96.7565 39.7734 96.5814 39.9086C96.5004 39.9769 96.4366 40.0635 96.3953 40.1614C96.354 40.2594 96.3363 40.3657 96.3437 40.4719C96.3367 40.6227 96.3866 40.7707 96.4835 40.8859C96.5805 40.9933 96.7012 41.0763 96.8358 41.1281C97.0271 41.2016 97.2221 41.2645 97.4202 41.3168C97.6699 41.3829 97.9147 41.4666 98.1527 41.5675C98.3406 41.6515 98.5042 41.7823 98.628 41.9477C98.7711 42.1499 98.8412 42.3954 98.8265 42.6433C98.8271 42.8691 98.7651 43.0904 98.6476 43.2827C98.5204 43.4912 98.3372 43.6591 98.1192 43.7671C97.8635 43.8963 97.5803 43.9601 97.2943 43.953C97.0064 43.9535 96.7219 43.89 96.4611 43.7671Z" fill="#BC372E"/>
<path d="M100.297 39.2439V43.8854H99.696V39.2439H100.297Z" fill="#BC372E"/>
<path d="M104.061 39.5284C104.414 39.708 104.706 39.9894 104.899 40.3368C105.092 40.7199 105.193 41.1435 105.193 41.5732C105.193 42.0028 105.092 42.4264 104.899 42.8096C104.706 43.1551 104.414 43.4339 104.061 43.6094C103.653 43.8037 103.206 43.9001 102.755 43.8911H101.321V39.244H102.755C103.206 39.2331 103.654 39.3306 104.061 39.5284ZM104.117 42.9081C104.28 42.7287 104.405 42.5181 104.486 42.2887C104.567 42.0594 104.601 41.816 104.586 41.5732C104.612 41.3248 104.582 41.0739 104.499 40.8386C104.416 40.6034 104.282 40.3899 104.106 40.2136C103.931 40.0373 103.718 39.9028 103.484 39.8198C103.251 39.7368 103.001 39.7075 102.755 39.734H101.916V43.3954H102.755C103.003 43.4112 103.251 43.3764 103.485 43.2931C103.719 43.2099 103.934 43.0799 104.117 42.911V42.9081Z" fill="#BC372E"/>
<path d="M108.716 42.8518H106.706L106.337 43.8854H105.702L107.379 39.2721H108.073L109.731 43.8854H109.096L108.716 42.8518ZM108.545 42.3617L107.707 40.0184L106.868 42.3617H108.545Z" fill="#BC372E"/>
<path d="M114.076 43.8854H113.472L111.053 40.1902V43.8854H110.441V39.2383H111.042L113.461 42.925V39.2383H114.076V43.8854Z" fill="#BC372E"/>
<path d="M117.445 39.2439V42.1814C117.432 42.347 117.451 42.5137 117.503 42.6714C117.555 42.8291 117.638 42.9747 117.747 43.0996C117.86 43.2037 117.992 43.2838 118.136 43.3351C118.28 43.3864 118.433 43.4078 118.586 43.3981C118.738 43.4088 118.892 43.3878 119.036 43.3365C119.18 43.2851 119.312 43.2045 119.424 43.0996C119.533 42.9747 119.616 42.8291 119.668 42.6714C119.72 42.5137 119.74 42.347 119.726 42.1814V39.2439H120.328V42.173C120.338 42.5138 120.258 42.8512 120.096 43.1503C119.951 43.4047 119.733 43.6097 119.472 43.7389C119.195 43.8651 118.894 43.9304 118.59 43.9304C118.286 43.9304 117.985 43.8651 117.708 43.7389C117.447 43.6104 117.23 43.4052 117.087 43.1503C116.925 42.8509 116.846 42.5135 116.858 42.173V39.2439H117.445Z" fill="#BC372E"/>
<path d="M121.963 43.7671C121.74 43.6709 121.546 43.5151 121.404 43.3164C121.266 43.1208 121.191 42.8864 121.192 42.6461H121.832C121.85 42.8632 121.95 43.065 122.112 43.2094C122.302 43.3706 122.548 43.4504 122.797 43.4319C123.04 43.4461 123.281 43.37 123.473 43.2179C123.554 43.1487 123.618 43.0621 123.66 42.9646C123.703 42.8671 123.723 42.7611 123.719 42.6546C123.727 42.4976 123.675 42.3435 123.574 42.2237C123.476 42.109 123.351 42.0217 123.21 41.9702C123.019 41.8958 122.823 41.8337 122.623 41.7843C122.374 41.7223 122.13 41.6414 121.893 41.5421C121.707 41.4602 121.546 41.3312 121.424 41.1675C121.286 40.9651 121.217 40.7228 121.228 40.4775C121.224 40.2395 121.291 40.0058 121.421 39.8072C121.554 39.6069 121.741 39.4495 121.961 39.3537C122.21 39.2425 122.481 39.1878 122.755 39.1932C123.135 39.1774 123.51 39.2926 123.817 39.5199C123.951 39.623 124.061 39.7533 124.141 39.9023C124.221 40.0513 124.269 40.2156 124.281 40.3845H123.621C123.593 40.1977 123.492 40.0297 123.342 39.917C123.156 39.7749 122.926 39.7031 122.693 39.7142C122.472 39.7046 122.254 39.7734 122.078 39.9086C121.998 39.9773 121.934 40.064 121.893 40.1618C121.852 40.2596 121.834 40.3658 121.84 40.4719C121.834 40.6231 121.885 40.7711 121.983 40.8859C122.079 40.9926 122.199 41.0755 122.332 41.1281C122.472 41.1844 122.668 41.2464 122.917 41.3168C123.167 41.3829 123.413 41.4667 123.652 41.5674C123.84 41.6515 124.004 41.7823 124.127 41.9477C124.269 42.1505 124.339 42.3955 124.326 42.6433C124.326 42.869 124.264 43.0904 124.147 43.2826C124.02 43.4911 123.837 43.6591 123.619 43.7671C123.363 43.896 123.08 43.9598 122.794 43.9529C122.507 43.9531 122.223 43.8896 121.963 43.7671Z" fill="#BC372E"/>
<path d="M128.033 39.2439V39.7368H126.778V43.8854H126.174V39.7368H124.913V39.2439H128.033Z" fill="#BC372E"/>
<path d="M129.361 39.2439V42.1814C129.348 42.3468 129.367 42.5134 129.419 42.6711C129.47 42.8288 129.552 42.9745 129.661 43.0996C129.897 43.2955 130.193 43.4026 130.499 43.4026C130.805 43.4026 131.102 43.2955 131.338 43.0996C131.446 42.9742 131.528 42.8284 131.579 42.6708C131.631 42.5132 131.65 42.3468 131.637 42.1814V39.2439H132.239V42.173C132.25 42.5135 132.171 42.8509 132.009 43.1503C131.863 43.4043 131.645 43.6091 131.383 43.7389C131.106 43.8651 130.805 43.9304 130.501 43.9304C130.197 43.9304 129.896 43.8651 129.619 43.7389C129.357 43.6104 129.141 43.4052 128.998 43.1503C128.839 42.8502 128.761 42.5131 128.772 42.173V39.2439H129.361Z" fill="#BC372E"/>
<path d="M136.855 43.8854H136.254L133.835 40.1902V43.8854H133.234V39.2383H133.835L136.254 42.925V39.2383H136.855V43.8854Z" fill="#BC372E"/>
</svg>
