<svg width="90" height="90" viewBox="0 0 90 90" fill="none" xmlns="http://www.w3.org/2000/svg">
<circle cx="45" cy="45" r="43.5" stroke="#9C2E29" stroke-width="3"/>
<path d="M39.2273 60.5568V59.5909C39.2462 56.2765 39.5398 53.6345 40.108 51.6648C40.6951 49.6951 41.5473 48.1042 42.6648 46.892C43.7822 45.6799 45.1269 44.5814 46.6989 43.5966C47.8731 42.839 48.9242 42.053 49.8523 41.2386C50.7803 40.4242 51.5189 39.5246 52.0682 38.5398C52.6174 37.536 52.892 36.4186 52.892 35.1875C52.892 33.8807 52.5795 32.7348 51.9545 31.75C51.3295 30.7652 50.4867 30.0076 49.4261 29.4773C48.3845 28.947 47.2292 28.6818 45.9602 28.6818C44.7292 28.6818 43.5644 28.9564 42.4659 29.5057C41.3674 30.036 40.4678 30.8314 39.767 31.892C39.0663 32.9337 38.6875 34.2311 38.6307 35.7841H27.0398C27.1345 31.9962 28.0436 28.8712 29.767 26.4091C31.4905 23.928 33.7727 22.0814 36.6136 20.8693C39.4545 19.6383 42.589 19.0227 46.017 19.0227C49.786 19.0227 53.1193 19.6477 56.017 20.8977C58.9148 22.1288 61.1875 23.9186 62.8352 26.267C64.483 28.6155 65.3068 31.447 65.3068 34.7614C65.3068 36.9773 64.9375 38.947 64.1989 40.6705C63.4792 42.375 62.4659 43.8902 61.1591 45.2159C59.8523 46.5227 58.3087 47.7064 56.5284 48.767C55.0322 49.6572 53.8011 50.5852 52.8352 51.5511C51.8883 52.517 51.178 53.6345 50.7045 54.9034C50.25 56.1723 50.0133 57.7348 49.9943 59.5909V60.5568H39.2273ZM44.8523 78.7386C42.9583 78.7386 41.339 78.0758 39.9943 76.75C38.6686 75.4053 38.0152 73.7955 38.0341 71.9205C38.0152 70.0644 38.6686 68.4735 39.9943 67.1477C41.339 65.822 42.9583 65.1591 44.8523 65.1591C46.6515 65.1591 48.233 65.822 49.5966 67.1477C50.9602 68.4735 51.6515 70.0644 51.6705 71.9205C51.6515 73.1705 51.3201 74.3163 50.6761 75.358C50.0511 76.3807 49.2273 77.2045 48.2045 77.8295C47.1818 78.4356 46.0644 78.7386 44.8523 78.7386Z" fill="#9C2E29"/>
</svg>
